<svg xmlns="http://www.w3.org/2000/svg" width="256" height="256" viewBox="0 0 100 100"><rect width="100" height="100" rx="20" fill="#296d29"></rect><path d="M12.83 39.05L12.83 39.05Q13.31 39.05 13.31 39.59L13.31 39.59Q13.31 39.78 13.15 39.94L13.15 39.94Q10.49 42.60 6.99 42.60L6.99 42.60Q6.17 42.60 5.15 41.67Q4.14 40.73 4.14 38.96Q4.14 37.18 6.30 35.00Q8.45 32.83 12.31 30.88Q16.17 28.93 21.94 27.40Q27.72 25.88 32.32 25.88Q36.92 25.88 39.88 26.62Q42.83 27.37 44.49 28.47Q46.16 29.56 47.24 30.93L47.24 30.93Q49.05 33.21 49.05 35.57Q49.05 37.94 47.52 40.45Q46.00 42.95 43.57 44.91Q41.15 46.86 38.00 48.54L38.00 48.54Q32.13 51.65 25.43 53.11L25.43 53.11Q26.58 54.28 30.27 59.00Q33.97 63.71 37.03 66.88Q40.10 70.06 41.78 70.06L41.78 70.06L42.83 69.68Q43.18 69.68 43.18 69.95Q43.18 70.22 42.02 71.50Q40.86 72.79 40.00 73.45Q39.15 74.12 37.67 74.12Q36.19 74.12 34.32 72.69Q32.45 71.26 30.23 68.66Q28.01 66.06 26.23 63.76Q24.45 61.46 22.17 58.33Q19.88 55.21 19.02 54.09L19.02 54.09Q18.71 54.60 17.40 56.62Q16.10 58.63 15.50 59.58Q14.90 60.54 13.75 62.36Q12.61 64.19 11.98 65.30L11.98 65.30Q10.23 68.25 9.55 69.71Q8.87 71.17 7.31 71.17L7.31 71.17L6.20 71.14L5.25 71.17Q3.28 71.17 3.28 69.52L3.28 69.52Q3.28 68.28 4.34 65.98Q5.41 63.68 15.63 48.81Q25.85 33.94 26.89 32.94Q27.94 31.94 28.45 31.81L28.45 31.81Q28.83 31.53 28.96 31.53L28.96 31.53L29.53 31.62L30.07 31.53Q30.35 31.53 30.58 31.77Q30.80 32.00 30.89 32.07L30.89 32.07Q32.23 33.05 32.23 33.72Q32.23 34.38 31.89 35.00Q31.56 35.62 30.07 37.78Q28.58 39.94 26.15 43.38Q23.72 46.83 22.64 48.38L22.64 48.38Q25.24 48.25 28.89 46.79Q32.54 45.33 35.73 43.29Q38.92 41.24 41.19 38.84Q43.46 36.45 43.46 34.67L43.46 34.67Q43.46 33.72 42.48 32.94Q41.49 32.16 40.00 31.72L40.00 31.72Q37.02 30.83 33.27 30.83Q29.53 30.83 23.78 32.45Q18.04 34.07 15.41 35.54Q12.77 37.02 11.60 38.05Q10.42 39.08 10.42 39.49L10.42 39.49Q10.42 39.72 11.07 39.72Q11.72 39.72 12.23 39.38Q12.74 39.05 12.83 39.05ZM60.51 39.05L60.51 39.05Q60.98 39.05 60.98 39.59L60.98 39.59Q60.98 39.78 60.82 39.94L60.82 39.94Q58.16 42.60 54.67 42.60L54.67 42.60Q53.84 42.60 52.82 41.67Q51.81 40.73 51.81 38.96Q51.81 37.18 53.97 35.00Q56.13 32.83 59.98 30.88Q63.84 28.93 69.61 27.40Q75.39 25.88 79.99 25.88Q84.59 25.88 87.55 26.62Q90.50 27.37 92.16 28.47Q93.83 29.56 94.91 30.93L94.91 30.93Q96.72 33.21 96.72 35.57Q96.72 37.94 95.20 40.45Q93.67 42.95 91.24 44.91Q88.82 46.86 85.67 48.54L85.67 48.54Q79.80 51.65 73.11 53.11L73.11 53.11Q74.25 54.28 77.95 59.00Q81.64 63.71 84.71 66.88Q87.77 70.06 89.45 70.06L89.45 70.06L90.50 69.68Q90.85 69.68 90.85 69.95Q90.85 70.22 89.69 71.50Q88.53 72.79 87.67 73.45Q86.82 74.12 85.34 74.12Q83.86 74.12 81.99 72.69Q80.12 71.26 77.90 68.66Q75.68 66.06 73.90 63.76Q72.12 61.46 69.84 58.33Q67.55 55.21 66.69 54.09L66.69 54.09Q66.38 54.60 65.08 56.62Q63.77 58.63 63.17 59.58Q62.57 60.54 61.43 62.36Q60.28 64.19 59.65 65.30L59.65 65.30Q57.90 68.25 57.22 69.71Q56.54 71.17 54.98 71.17L54.98 71.17L53.87 71.14L52.92 71.17Q50.95 71.17 50.95 69.52L50.95 69.52Q50.95 68.28 52.02 65.98Q53.08 63.68 63.30 48.81Q73.52 33.94 74.57 32.94Q75.61 31.94 76.12 31.81L76.12 31.81Q76.50 31.53 76.63 31.53L76.63 31.53L77.20 31.62L77.74 31.53Q78.02 31.53 78.25 31.77Q78.47 32.00 78.56 32.07L78.56 32.07Q79.90 33.05 79.90 33.72Q79.90 34.38 79.56 35.00Q79.23 35.62 77.74 37.78Q76.25 39.94 73.82 43.38Q71.39 46.83 70.31 48.38L70.31 48.38Q72.92 48.25 76.56 46.79Q80.21 45.33 83.40 43.29Q86.59 41.24 88.86 38.84Q91.13 36.45 91.13 34.67L91.13 34.67Q91.13 33.72 90.15 32.94Q89.17 32.16 87.67 31.72L87.67 31.72Q84.69 30.83 80.94 30.83Q77.20 30.83 71.46 32.45Q65.71 34.07 63.08 35.54Q60.44 37.02 59.27 38.05Q58.09 39.08 58.09 39.49L58.09 39.49Q58.09 39.72 58.74 39.72Q59.39 39.72 59.90 39.38Q60.41 39.05 60.51 39.05Z" fill="#fff6f6"></path></svg>